# xmcd
#
# Track frame offsets:
#	150
#	9400
#	20857
#	32152
#	43228
#	51856
#	61679
#	79980
#	87659
#	99862
#	115547
#	129970
#	142079
#	155719
#
# Disc length: 2351 seconds
#
# Revision: 0
# Processed by: cddbd v1.5.2PL0 Copyright (c) Steve Scherf et al.
# Submitted via: dBpowerAMP V4.0
#
DISCID=b8092d0e
DTITLE=Tomas Linka - Prima linka do vzpominek
DYEAR=2002
DGENRE=Country
TTITLE0=Hej Joe
TTITLE1=Jesse James
TTITLE2=Sest bilejch koni
TTITLE3=Casey Jones
TTITLE4=Hardy
TTITLE5=Ja v posledni dobe
TTITLE6=Zatoka
TTITLE7=Kamarad
TTITLE8=Cizinec
TTITLE9=Cervena reka
TTITLE10=Vlak ma zelenou
TTITLE11=Rok 1849
TTITLE12=Na vanoce rano
TTITLE13=Smes
EXTD=
EXTT0=
EXTT1=
EXTT2=
EXTT3=
EXTT4=
EXTT5=
EXTT6=
EXTT7=
EXTT8=
EXTT9=
EXTT10=
EXTT11=
EXTT12=
EXTT13=
PLAYORDER=
